HIERARCHY
ROOT Hips
{
	OFFSET 0.000000 71.427986 0.000000
	CHANNELS 6 Xposition Yposition Zposition Xrotation Yrotation Zrotation
	JOINT Pelvis
	{
		OFFSET 0.000000 0.000000 0.000000
		CHANNELS 3 Xrotation Yrotation Zrotation
		JOINT LeftUpLeg
		{
			OFFSET 6.797100 -2.508499 -1.318700
			CHANNELS 3 Xrotation Yrotation Zrotation
			JOINT LeftLeg
			{
				OFFSET 0.069008 -29.241863 0.690200
				CHANNELS 3 Xrotation Yrotation Zrotation
				JOINT LeftFoot
				{
					OFFSET -0.069008 -29.568123 -0.266800
					CHANNELS 3 Xrotation Yrotation Zrotation
					JOINT LeftToeBase
					{
						OFFSET 3.145500 -8.631000 16.059900
						CHANNELS 3 Xrotation Yrotation Zrotation
						End Site
						{
							OFFSET 0.000000 18.501587 0.000000
						}
					}
				}
			}
			JOINT Left_ShortSleeve
			{
				OFFSET 0.265923 -10.480953 1.153800
				CHANNELS 3 Xrotation Yrotation Zrotation
				End Site
				{
					OFFSET 1.725763 19.823879 0.000000
				}
			}
		}
		JOINT RightUpLeg
		{
			OFFSET -6.797100 -2.508499 -1.318700
			CHANNELS 3 Xrotation Yrotation Zrotation
			JOINT RightLeg
			{
				OFFSET -0.082453 -29.241932 0.688000
				CHANNELS 3 Xrotation Yrotation Zrotation
				JOINT RightFoot
				{
					OFFSET 0.082453 -29.568058 -0.264600
					CHANNELS 3 Xrotation Yrotation Zrotation
					JOINT RightToeBase
					{
						OFFSET -3.115300 -8.682800 16.113400
						CHANNELS 3 Xrotation Yrotation Zrotation
						End Site
						{
							OFFSET 0.000000 18.567114 0.000000
						}
					}
				}
			}
			JOINT Right_ShortSleeve
			{
				OFFSET -0.265923 -10.480953 1.153800
				CHANNELS 3 Xrotation Yrotation Zrotation
				End Site
				{
					OFFSET -1.725766 19.823910 0.000000
				}
			}
		}
	}
	JOINT Spine
	{
		OFFSET 0.000000 13.368103 0.470500
		CHANNELS 3 Xrotation Yrotation Zrotation
		JOINT Spine1
		{
			OFFSET 0.147000 13.837402 0.538800
			CHANNELS 3 Xrotation Yrotation Zrotation
			JOINT Spine2
			{
				OFFSET 0.168000 16.242897 -1.435500
				CHANNELS 3 Xrotation Yrotation Zrotation
				JOINT Neck
				{
					OFFSET 0.217200 18.631500 -1.679100
					CHANNELS 3 Xrotation Yrotation Zrotation
					JOINT Head
					{
						OFFSET 0.000000 6.599396 1.385900
						CHANNELS 3 Xrotation Yrotation Zrotation
						JOINT Hat
						{
							OFFSET -0.532200 27.220596 -10.096100
							CHANNELS 3 Xrotation Yrotation Zrotation
							End Site
							{
								OFFSET 0.000000 22.029861 0.000000
							}
						}
						JOINT HairD
						{
							OFFSET -10.777400 17.437393 -1.325900
							CHANNELS 3 Xrotation Yrotation Zrotation
							JOINT HairD1
							{
								OFFSET -3.290299 -11.051193 1.062200
								CHANNELS 3 Xrotation Yrotation Zrotation
								End Site
								{
									OFFSET 0.000000 11.579437 0.000000
								}
							}
						}
						JOINT HairB
						{
							OFFSET -10.777400 17.437393 1.467900
							CHANNELS 3 Xrotation Yrotation Zrotation
							JOINT HairB1
							{
								OFFSET -1.561200 -12.956299 3.590200
								CHANNELS 3 Xrotation Yrotation Zrotation
								End Site
								{
									OFFSET 0.000000 13.534866 0.000000
								}
							}
						}
						JOINT HairA
						{
							OFFSET 9.713100 17.437393 1.467900
							CHANNELS 3 Xrotation Yrotation Zrotation
							JOINT HairA1
							{
								OFFSET 1.561200 -12.956299 3.590200
								CHANNELS 3 Xrotation Yrotation Zrotation
								End Site
								{
									OFFSET 0.000000 13.534866 0.000000
								}
							}
						}
						JOINT HairC
						{
							OFFSET 9.713100 17.437393 -1.325900
							CHANNELS 3 Xrotation Yrotation Zrotation
							JOINT HairC1
							{
								OFFSET 3.290300 -11.051193 1.062200
								CHANNELS 3 Xrotation Yrotation Zrotation
								End Site
								{
									OFFSET 0.000000 11.579437 0.000000
								}
							}
						}
					}
				}
				JOINT LeftShoulder
				{
					OFFSET 5.101800 15.108002 -2.763700
					CHANNELS 3 Xrotation Yrotation Zrotation
					JOINT LeftArm
					{
						OFFSET 9.825497 2.506317 -1.597400
						CHANNELS 3 Xrotation Yrotation Zrotation
						JOINT LeftForeArm
						{
							OFFSET 21.966244 0.000000 0.000000
							CHANNELS 3 Xrotation Yrotation Zrotation
							JOINT LeftHand
							{
								OFFSET 33.879036 0.000000 0.000000
								CHANNELS 3 Xrotation Yrotation Zrotation
								JOINT LeftHandThumb1
								{
									OFFSET 6.715286 -2.359680 3.363841
									CHANNELS 3 Xrotation Yrotation Zrotation
									JOINT LeftHandThumb2
									{
										OFFSET 2.507072 -1.447464 1.447461
										CHANNELS 3 Xrotation Yrotation Zrotation
										JOINT LeftHandThumb3
										{
											OFFSET 2.898338 -1.673355 1.673357
											CHANNELS 3 Xrotation Yrotation Zrotation
											End Site
											{
												OFFSET -0.295959 3.727692 -0.131651
											}
										}
									}
								}
								JOINT LeftHandIndex1
								{
									OFFSET 14.190811 -0.254547 3.840278
									CHANNELS 3 Xrotation Yrotation Zrotation
									JOINT LeftHandIndex2
									{
										OFFSET 3.551727 0.000000 -0.000000
										CHANNELS 3 Xrotation Yrotation Zrotation
										JOINT LeftHandIndex3
										{
											OFFSET 2.894196 0.000000 0.000000
											CHANNELS 3 Xrotation Yrotation Zrotation
											End Site
											{
												OFFSET -1.000603 2.690872 0.366626
											}
										}
									}
								}
								JOINT LeftHandMiddle1
								{
									OFFSET 13.776489 0.000000 0.000000
									CHANNELS 3 Xrotation Yrotation Zrotation
									JOINT LeftHandMiddle2
									{
										OFFSET 3.438232 0.000000 0.000000
										CHANNELS 3 Xrotation Yrotation Zrotation
										JOINT LeftHandMiddle3
										{
											OFFSET 3.691551 0.000000 0.000000
											CHANNELS 3 Xrotation Yrotation Zrotation
											End Site
											{
												OFFSET -1.082298 3.499527 0.457670
											}
										}
									}
								}
								JOINT LeftHandRing1
								{
									OFFSET 13.966164 -0.268127 -3.067488
									CHANNELS 3 Xrotation Yrotation Zrotation
									JOINT LeftHandRing2
									{
										OFFSET 3.162567 0.000000 0.000000
										CHANNELS 3 Xrotation Yrotation Zrotation
										JOINT LeftHandRing3
										{
											OFFSET 3.324348 0.000000 0.000000
											CHANNELS 3 Xrotation Yrotation Zrotation
											End Site
											{
												OFFSET -0.861900 3.184998 0.405154
											}
										}
									}
								}
								JOINT LeftHandPinky1
								{
									OFFSET 13.131393 -0.168503 -5.746925
									CHANNELS 3 Xrotation Yrotation Zrotation
									JOINT LeftHandPinky2
									{
										OFFSET 2.849182 0.000000 0.000000
										CHANNELS 3 Xrotation Yrotation Zrotation
										JOINT LeftHandPinky3
										{
											OFFSET 2.805038 0.000000 0.000000
											CHANNELS 3 Xrotation Yrotation Zrotation
											End Site
											{
												OFFSET -0.882500 2.642609 0.325652
											}
										}
									}
								}
							}
							JOINT Left_Sleeve
							{
								OFFSET 6.592125 -0.646545 0.805568
								CHANNELS 3 Xrotation Yrotation Zrotation
								End Site
								{
									OFFSET -0.000179 20.275787 -0.000000
								}
							}
						}
					}
				}
				JOINT RightShoulder
				{
					OFFSET -5.731700 15.108002 -2.763700
					CHANNELS 3 Xrotation Yrotation Zrotation
					JOINT RightArm
					{
						OFFSET -9.825497 2.506317 -1.597400
						CHANNELS 3 Xrotation Yrotation Zrotation
						JOINT RightForeArm
						{
							OFFSET -21.966242 0.000000 0.000000
							CHANNELS 3 Xrotation Yrotation Zrotation
							JOINT RightHand
							{
								OFFSET -33.879032 0.000000 0.000000
								CHANNELS 3 Xrotation Yrotation Zrotation
								JOINT RightHandThumb1
								{
									OFFSET -6.715286 -2.359680 3.363841
									CHANNELS 3 Xrotation Yrotation Zrotation
									JOINT RightHandThumb2
									{
										OFFSET -2.507072 -1.447464 1.447461
										CHANNELS 3 Xrotation Yrotation Zrotation
										JOINT RightHandThumb3
										{
											OFFSET -2.898338 -1.673355 1.673357
											CHANNELS 3 Xrotation Yrotation Zrotation
											End Site
											{
												OFFSET 0.295959 3.727692 -0.131651
											}
										}
									}
								}
								JOINT RightHandIndex1
								{
									OFFSET -14.190811 -0.254547 3.840278
									CHANNELS 3 Xrotation Yrotation Zrotation
									JOINT RightHandIndex2
									{
										OFFSET -3.551727 0.000000 -0.000000
										CHANNELS 3 Xrotation Yrotation Zrotation
										JOINT RightHandIndex3
										{
											OFFSET -2.894196 0.000000 0.000000
											CHANNELS 3 Xrotation Yrotation Zrotation
											End Site
											{
												OFFSET 1.000603 2.690872 0.366626
											}
										}
									}
								}
								JOINT RightHandMiddle1
								{
									OFFSET -13.776489 0.000000 0.000000
									CHANNELS 3 Xrotation Yrotation Zrotation
									JOINT RightHandMiddle2
									{
										OFFSET -3.438232 0.000000 0.000000
										CHANNELS 3 Xrotation Yrotation Zrotation
										JOINT RightHandMiddle3
										{
											OFFSET -3.691551 0.000000 0.000000
											CHANNELS 3 Xrotation Yrotation Zrotation
											End Site
											{
												OFFSET 1.082298 3.499527 0.457670
											}
										}
									}
								}
								JOINT RightHandRing1
								{
									OFFSET -13.966164 -0.268127 -3.067488
									CHANNELS 3 Xrotation Yrotation Zrotation
									JOINT RightHandRing2
									{
										OFFSET -3.162567 0.000000 0.000000
										CHANNELS 3 Xrotation Yrotation Zrotation
										JOINT RightHandRing3
										{
											OFFSET -3.324348 0.000000 0.000000
											CHANNELS 3 Xrotation Yrotation Zrotation
											End Site
											{
												OFFSET 0.861900 3.184998 0.405154
											}
										}
									}
								}
								JOINT RightHandPinky1
								{
									OFFSET -13.131393 -0.168503 -5.746925
									CHANNELS 3 Xrotation Yrotation Zrotation
									JOINT RightHandPinky2
									{
										OFFSET -2.849182 0.000000 0.000000
										CHANNELS 3 Xrotation Yrotation Zrotation
										JOINT RightHandPinky3
										{
											OFFSET -2.805038 0.000000 0.000000
											CHANNELS 3 Xrotation Yrotation Zrotation
											End Site
											{
												OFFSET 0.882500 2.642609 0.325652
											}
										}
									}
								}
							}
							JOINT Right_Sleeve
							{
								OFFSET -6.592125 -0.646545 0.805568
								CHANNELS 3 Xrotation Yrotation Zrotation
								End Site
								{
									OFFSET 0.000179 20.275787 -0.000000
								}
							}
						}
					}
				}
				JOINT Bind_Right_JacketString
				{
					OFFSET -3.534800 11.969597 7.200700
					CHANNELS 3 Xrotation Yrotation Zrotation
					JOINT Bind_Right_JacketString1
					{
						OFFSET -0.319900 -6.102600 2.794100
						CHANNELS 3 Xrotation Yrotation Zrotation
						End Site
						{
							OFFSET 0.000000 6.719452 0.000000
						}
					}
				}
				JOINT Bind_Left_JacketString
				{
					OFFSET 2.904800 11.969597 7.200700
					CHANNELS 3 Xrotation Yrotation Zrotation
					JOINT Bind_Left_JacketString1
					{
						OFFSET 0.364800 -5.904503 3.186800
						CHANNELS 3 Xrotation Yrotation Zrotation
						End Site
						{
							OFFSET 0.000000 6.719513 0.000000
						}
					}
				}
				JOINT HairE
				{
					OFFSET 5.915200 17.612701 -11.592200
					CHANNELS 3 Xrotation Yrotation Zrotation
					JOINT HairE1
					{
						OFFSET 0.289200 -7.171898 -1.284500
						CHANNELS 3 Xrotation Yrotation Zrotation
						End Site
						{
							OFFSET 0.000000 7.291756 0.000000
						}
					}
				}
				JOINT HairF
				{
					OFFSET -0.864800 17.612701 -11.592200
					CHANNELS 3 Xrotation Yrotation Zrotation
					JOINT HairF1
					{
						OFFSET 0.000000 -14.087097 -2.127501
						CHANNELS 3 Xrotation Yrotation Zrotation
						End Site
						{
							OFFSET 0.000000 14.246841 0.000000
						}
					}
				}
				JOINT HairG
				{
					OFFSET -8.087700 17.612701 -11.592200
					CHANNELS 3 Xrotation Yrotation Zrotation
					JOINT HairG1
					{
						OFFSET -0.293600 -6.081398 -0.910100
						CHANNELS 3 Xrotation Yrotation Zrotation
						End Site
						{
							OFFSET 0.000000 6.156120 0.000000
						}
					}
				}
			}
		}
	}
	JOINT Pouch
	{
		OFFSET 0.000000 4.394501 10.847300
		CHANNELS 3 Xrotation Yrotation Zrotation
		End Site
		{
			OFFSET 0.000000 21.880577 0.000000
		}
	}
	JOINT Bag
	{
		OFFSET -13.229000 4.813004 -0.593300
		CHANNELS 3 Xrotation Yrotation Zrotation
		End Site
		{
			OFFSET 0.000000 21.880577 0.000000
		}
	}
	JOINT OccupyGuyFacialAnim_Joint
	{
		OFFSET 1.000000 -70.206398 -1.655000
		CHANNELS 3 Xrotation Yrotation Zrotation
		End Site
		{
			OFFSET 0.000000 21.880577 0.000000
		}
	}
}
MOTION
Frames: 4
Frame Time: 0.016667
0.013340 64.567345 0.099789 9.540974 -61.607746 10.158363 -0.000000 0.000000 0.000000 -34.030021 13.174132 22.630278 36.645150 -7.061429 1.214781 -8.817791 -1.953541 -15.288982 0.000000 -0.000003 0.000000 -0.000000 0.000000 0.000003 -29.116731 -21.189349 -31.055173 35.640064 3.720360 -4.158991 -13.966018 0.510989 21.623530 -0.000000 -0.000000 0.000000 -0.000001 -0.000000 0.000000 15.063692 -0.338017 -4.297657 5.872399 0.563939 -2.798215 5.868718 0.648188 -2.860165 -3.632879 1.437145 3.747498 -20.005962 54.836778 2.407375 0.000000 -0.000000 0.000000 0.000000 -0.000000 0.000000 0.000000 -0.000000 0.000000 0.000000 -0.000000 -0.000000 0.000000 0.000000 -0.000000 0.000000 -0.000000 -0.000000 0.000000 0.000000 -0.000000 0.000000 -0.000000 0.000000 0.000000 -0.000000 0.000000 1.828105 -3.192689 -12.271568 -39.387413 26.350501 -34.911102 0.429353 -46.808482 0.416169 -10.315055 -0.130716 0.363023 40.109955 -15.297120 -0.360509 5.639826 28.097914 11.338840 -0.000001 0.000002 0.000003 6.882261 2.840086 -61.140397 8.247989 7.640047 -89.897878 0.000000 -0.000000 -0.000002 -2.345505 4.688878 -62.655204 8.754163 9.897072 -87.051307 0.000003 -0.000003 0.000002 -9.042453 10.045635 -60.766171 8.524083 9.508837 -66.893042 -0.000002 0.000001 -0.000001 -17.946906 14.755015 -51.485850 8.868450 8.667048 -84.811989 -0.000003 0.000001 -0.000002 0.000001 0.000000 0.000002 0.632612 7.257342 8.700394 7.936011 -9.680160 53.429892 -22.867441 36.194696 17.955459 -27.369917 10.432888 -17.813552 -2.346189 -6.100551 10.731439 2.364066 -23.806320 -8.771057 0.000000 0.000000 0.000001 -0.054756 0.532100 0.738736 0.019779 -0.087304 5.078499 0.000000 -0.000001 0.000004 0.348254 -5.918521 2.583828 1.432603 -4.204236 24.052089 0.000003 -0.000001 -0.000003 1.205825 -11.756059 4.154781 1.794839 -3.771870 26.865410 0.000000 0.000000 -0.000001 2.126208 -19.166870 11.319978 3.354770 -2.122232 18.828554 0.000001 0.000000 0.000004 0.000003 -0.000001 -0.000001 -0.000000 0.000002 -0.000000 -0.000001 0.000002 0.000001 -0.000000 0.000002 -0.000000 -0.000000 0.000002 -0.000000 -0.000000 0.000002 -0.000000 -0.000001 0.000002 0.000001 -0.000000 0.000002 -0.000000 -0.000000 0.000002 -0.000000 -0.000000 0.000002 -0.000000 -0.000001 0.000002 0.000001 -0.000000 0.000000 0.000000 -0.000000 0.000000 0.000000 -0.000000 0.000000 0.000000 
-0.093733 64.790215 0.971010 9.345962 -61.878461 9.877128 0.000000 -0.000001 0.000000 -33.470796 13.628559 22.244775 37.147357 -6.871111 1.230672 -9.778955 -1.995468 -14.706505 -0.000000 -0.000002 0.000000 -0.000000 -0.000000 -0.000001 -27.887527 -19.570956 -30.488858 35.275140 1.636350 -3.901160 -12.403578 -0.101260 21.734079 -0.000000 -0.000000 0.000000 -0.000001 -0.000000 -0.000000 15.060026 -0.370439 -4.305318 5.808927 0.512825 -2.771126 5.805199 0.597259 -2.833452 -3.638488 1.536344 3.725354 -19.889627 54.758115 2.275297 -0.000000 -0.000000 -0.000000 -0.000000 -0.000000 -0.000000 -0.000000 -0.000000 0.000000 -0.000000 -0.000000 -0.000001 0.000000 0.000000 -0.000000 -0.000000 -0.000000 -0.000001 0.000000 0.000000 -0.000000 -0.000000 -0.000000 -0.000000 -0.000000 -0.000000 -0.000000 1.811778 -3.211861 -12.344136 -39.504134 26.319835 -34.529314 1.101676 -46.417942 0.952198 -9.885015 0.827939 1.334660 40.109955 -15.297122 -0.360505 5.639826 28.097916 11.338841 -0.000001 0.000001 -0.000002 6.883843 2.854647 -61.141948 8.247990 7.640044 -89.897878 0.000000 0.000001 0.000000 -2.345661 4.688778 -62.645259 8.754110 9.897064 -87.051342 0.000005 0.000001 -0.000001 -9.042450 10.045638 -60.766171 8.524012 9.508693 -66.885823 0.000004 0.000003 -0.000002 -17.946904 14.755013 -51.485853 8.868243 8.667105 -84.803861 -0.000006 -0.000000 0.000001 0.000003 -0.000001 -0.000001 0.692441 7.427215 8.935626 5.481159 -8.784171 52.938775 -21.606668 32.865620 15.936069 -24.516477 8.995001 -17.062803 -4.116520 -6.706664 9.307954 1.886952 -23.619563 -9.140344 0.000000 -0.000001 0.000000 -0.010634 0.533225 -1.327963 0.017484 -0.087287 5.720671 0.000000 -0.000001 0.000002 0.409166 -5.946826 2.284647 1.424241 -4.181323 21.464430 0.000001 0.000000 -0.000001 0.746811 -11.971092 3.731576 1.819246 -3.840945 25.204791 -0.000001 0.000000 -0.000002 1.682344 -18.956620 9.983741 3.331155 -2.133630 16.242127 -0.000000 0.000000 0.000001 0.000004 0.000001 -0.000000 -0.000002 0.000001 -0.000002 -0.000002 -0.000001 -0.000000 -0.000002 0.000001 0.000000 -0.000002 0.000001 0.000000 -0.000002 0.000001 -0.000002 -0.000002 -0.000001 -0.000000 -0.000002 0.000001 0.000000 -0.000002 0.000001 0.000000 -0.000002 0.000001 -0.000002 -0.000002 -0.000001 -0.000000 0.000000 -0.000001 0.000000 0.000000 -0.000001 0.000000 0.000000 -0.000001 0.000000 
-0.201218 65.014526 1.843825 9.144171 -62.151190 9.590929 -0.000000 -0.000000 0.000000 -32.846513 14.081998 21.825233 37.548238 -6.640988 1.249703 -10.697363 -2.051946 -14.144342 -0.000000 -0.000002 0.000000 0.000000 -0.000000 0.000000 -26.742371 -17.938305 -29.993615 35.011471 -0.486567 -3.639434 -10.773402 -0.720491 21.788667 0.000000 0.000000 0.000000 0.000002 -0.000000 0.000001 15.048331 -0.449665 -4.283133 5.633804 0.369655 -2.696475 5.629848 0.454784 -2.759858 -3.655649 1.814230 3.662541 -19.581877 54.532350 1.920072 0.000000 0.000000 0.000000 0.000000 0.000000 0.000000 0.000000 0.000000 0.000000 0.000000 0.000000 0.000000 0.000000 0.000000 0.000000 0.000000 0.000000 0.000000 0.000000 0.000000 0.000000 0.000000 0.000000 0.000000 0.000000 0.000000 0.000000 1.851097 -3.205587 -12.196507 -39.716621 26.246966 -34.186517 2.759090 -45.717431 2.309641 -9.601696 1.846985 2.522828 40.109955 -15.297120 -0.360509 5.639826 28.097916 11.338841 -0.000001 -0.000001 -0.000001 6.885316 2.867605 -61.143246 8.247989 7.640043 -89.897878 -0.000000 -0.000001 0.000001 -2.345721 4.688749 -62.636373 8.754116 9.897070 -87.051219 0.000001 0.000004 -0.000002 -9.042453 10.045636 -60.766171 8.523964 9.508547 -66.879314 -0.000002 -0.000002 -0.000000 -17.946903 14.755012 -51.485860 8.868054 8.667139 -84.796676 0.000001 0.000001 -0.000000 -0.000002 0.000003 -0.000006 0.772927 7.546819 9.119209 2.943608 -7.711108 52.563445 -20.404009 29.266104 13.879043 -21.562917 7.631784 -16.206046 -6.237936 -7.289040 7.642144 1.335655 -23.383228 -9.554173 -0.000001 -0.000000 0.000004 0.036208 0.531758 -3.691430 0.018921 -0.086981 6.453125 -0.000000 -0.000000 0.000000 0.478645 -5.980240 1.942308 1.420326 -4.160121 18.500776 0.000004 -0.000000 0.000001 0.223191 -12.207950 3.248197 1.839694 -3.913907 23.324300 -0.000001 -0.000002 0.000001 1.189580 -18.704704 8.461777 3.307096 -2.146757 13.290752 0.000001 0.000001 0.000001 -0.000001 0.000001 -0.000002 -0.000002 0.000001 -0.000001 -0.000003 0.000002 0.000000 -0.000002 0.000001 -0.000001 -0.000002 0.000001 -0.000001 -0.000002 0.000001 -0.000001 -0.000003 0.000002 0.000000 -0.000002 0.000001 -0.000001 -0.000002 0.000001 -0.000001 -0.000002 0.000001 -0.000001 -0.000003 0.000002 0.000000 -0.000000 -0.000000 0.000000 -0.000000 -0.000000 0.000000 -0.000000 -0.000000 0.000000 
-0.309248 65.231773 2.713324 8.947485 -62.417820 9.305375 -0.000000 -0.000001 -0.000000 -32.192095 14.517741 21.384697 37.889546 -6.380219 1.271116 -11.586893 -2.119903 -13.603741 0.000000 0.000000 -0.000000 -0.000000 0.000002 0.000001 -25.684829 -16.188178 -29.503047 34.952670 -2.638704 -3.368928 -9.160355 -1.341062 21.744245 0.000000 -0.000000 0.000000 -0.000001 -0.000001 -0.000000 15.027038 -0.566534 -4.234520 5.371675 0.150709 -2.585296 5.367426 0.236837 -2.650275 -3.683377 2.240258 3.564171 -19.144248 54.178307 1.405949 -0.000000 0.000000 0.000000 -0.000000 0.000000 0.000000 -0.000000 0.000000 0.000000 -0.000000 0.000000 -0.000000 0.000000 -0.000000 -0.000000 -0.000000 0.000000 -0.000000 0.000000 -0.000000 -0.000000 -0.000000 0.000000 0.000000 -0.000000 0.000000 0.000000 1.843142 -3.270747 -12.215996 -40.079048 26.019749 -33.554216 4.817957 -44.880483 3.995146 -9.298807 2.592864 3.380258 40.109958 -15.297122 -0.360512 5.639825 28.097916 11.338843 -0.000001 0.000001 0.000000 6.886542 2.878946 -61.144338 8.247990 7.640044 -89.897871 0.000002 0.000004 0.000000 -2.345664 4.688675 -62.628477 8.754127 9.897084 -87.051143 0.000002 -0.000000 0.000001 -9.042453 10.045635 -60.766171 8.523911 9.508412 -66.873604 -0.000001 0.000000 -0.000003 -17.946903 14.755017 -51.485860 8.867868 8.667209 -84.790337 -0.000005 -0.000001 0.000003 -0.000002 0.000002 -0.000000 0.851985 7.665270 9.321648 0.526173 -6.652013 52.259068 -19.353572 25.785904 11.962597 -18.611741 6.402537 -15.306797 -8.268320 -7.739949 6.081492 0.815488 -23.164132 -9.941016 0.000000 -0.000001 -0.000000 0.081629 0.527670 -5.928366 0.019950 -0.086713 7.147215 0.000001 0.000001 0.000004 0.550277 -6.015974 1.586691 1.422000 -4.150015 15.428275 0.000002 0.000001 -0.000001 -0.337127 -12.451468 2.730657 1.855727 -3.992494 21.326393 0.000001 -0.000001 0.000001 0.689168 -18.427463 6.871382 3.285330 -2.163371 10.191943 0.000001 0.000001 0.000004 0.000000 0.000000 -0.000002 -0.000001 -0.000000 0.000001 0.000001 0.000001 -0.000001 -0.000001 -0.000000 0.000001 -0.000001 -0.000000 0.000001 -0.000001 -0.000000 0.000001 0.000001 0.000001 -0.000000 -0.000001 -0.000000 0.000001 -0.000001 -0.000000 0.000001 -0.000001 -0.000000 0.000001 0.000001 0.000001 -0.000000 -0.000000 -0.000001 -0.000000 -0.000000 -0.000001 -0.000000 -0.000000 -0.000001 -0.000000 
